<svg width="285" height="289" viewBox="0 0 285 289" fill="none" xmlns="http://www.w3.org/2000/svg">
<g clip-path="url(#clip0_39_707)">
<g filter="url(#filter0_d_39_707)">
<path d="M142.078 4H274.078V273C274.078 274.105 273.183 275 272.078 275H142.078V4Z" fill="url(#paint0_linear_39_707)"/>
</g>
<g filter="url(#filter1_d_39_707)">
<path d="M10.0781 4H143.078V275H12.0781C10.9736 275 10.0781 274.105 10.0781 273V4Z" fill="url(#paint1_linear_39_707)"/>
</g>
<g filter="url(#filter2_d_39_707)">
<path d="M15.6401 258.127C20.1244 246.595 31.2278 239 43.6002 239H240.556C252.929 239 264.032 246.595 268.516 258.127L274.018 272.275C274.528 273.586 273.561 275 272.154 275H12.0019C10.5952 275 9.62803 273.586 10.1379 272.275L15.6401 258.127Z" fill="white"/>
</g>
<g filter="url(#filter3_d_39_707)">
<path d="M15.6401 258.127C20.1244 246.595 31.2278 239 43.6002 239H240.556C252.929 239 264.032 246.595 268.516 258.127L274.018 272.275C274.528 273.586 273.561 275 272.154 275H12.0019C10.5952 275 9.62803 273.586 10.1379 272.275L15.6401 258.127Z" fill="white"/>
</g>
</g>
<defs>
<filter id="filter0_d_39_707" x="142.078" y="0" width="140" height="279" filterUnits="userSpaceOnUse" color-interpolation-filters="sRGB">
<feFlood flood-opacity="0" result="BackgroundImageFix"/>
<feColorMatrix in="SourceAlpha" type="matrix" values="0 0 0 0 0 0 0 0 0 0 0 0 0 0 0 0 0 0 127 0" result="hardAlpha"/>
<feOffset dx="4"/>
<feGaussianBlur stdDeviation="2"/>
<feComposite in2="hardAlpha" operator="out"/>
<feColorMatrix type="matrix" values="0 0 0 0 0 0 0 0 0 0 0 0 0 0 0 0 0 0 0.04 0"/>
<feBlend mode="normal" in2="BackgroundImageFix" result="effect1_dropShadow_39_707"/>
<feBlend mode="normal" in="SourceGraphic" in2="effect1_dropShadow_39_707" result="shape"/>
</filter>
<filter id="filter1_d_39_707" x="10.0781" y="0" width="141" height="279" filterUnits="userSpaceOnUse" color-interpolation-filters="sRGB">
<feFlood flood-opacity="0" result="BackgroundImageFix"/>
<feColorMatrix in="SourceAlpha" type="matrix" values="0 0 0 0 0 0 0 0 0 0 0 0 0 0 0 0 0 0 127 0" result="hardAlpha"/>
<feOffset dx="4"/>
<feGaussianBlur stdDeviation="2"/>
<feComposite in2="hardAlpha" operator="out"/>
<feColorMatrix type="matrix" values="0 0 0 0 0 0 0 0 0 0 0 0 0 0 0 0 0 0 0.03 0"/>
<feBlend mode="normal" in2="BackgroundImageFix" result="effect1_dropShadow_39_707"/>
<feBlend mode="normal" in="SourceGraphic" in2="effect1_dropShadow_39_707" result="shape"/>
</filter>
<filter id="filter2_d_39_707" x="0" y="233" width="284.156" height="56" filterUnits="userSpaceOnUse" color-interpolation-filters="sRGB">
<feFlood flood-opacity="0" result="BackgroundImageFix"/>
<feColorMatrix in="SourceAlpha" type="matrix" values="0 0 0 0 0 0 0 0 0 0 0 0 0 0 0 0 0 0 127 0" result="hardAlpha"/>
<feOffset dy="4"/>
<feGaussianBlur stdDeviation="5"/>
<feComposite in2="hardAlpha" operator="out"/>
<feColorMatrix type="matrix" values="0 0 0 0 0 0 0 0 0 0 0 0 0 0 0 0 0 0 0.1 0"/>
<feBlend mode="normal" in2="BackgroundImageFix" result="effect1_dropShadow_39_707"/>
<feBlend mode="normal" in="SourceGraphic" in2="effect1_dropShadow_39_707" result="shape"/>
</filter>
<filter id="filter3_d_39_707" x="0" y="233" width="284.156" height="56" filterUnits="userSpaceOnUse" color-interpolation-filters="sRGB">
<feFlood flood-opacity="0" result="BackgroundImageFix"/>
<feColorMatrix in="SourceAlpha" type="matrix" values="0 0 0 0 0 0 0 0 0 0 0 0 0 0 0 0 0 0 127 0" result="hardAlpha"/>
<feOffset dy="4"/>
<feGaussianBlur stdDeviation="5"/>
<feComposite in2="hardAlpha" operator="out"/>
<feColorMatrix type="matrix" values="0 0 0 0 0 0 0 0 0 0 0 0 0 0 0 0 0 0 0.04 0"/>
<feBlend mode="normal" in2="BackgroundImageFix" result="effect1_dropShadow_39_707"/>
<feBlend mode="normal" in="SourceGraphic" in2="effect1_dropShadow_39_707" result="shape"/>
</filter>
<linearGradient id="paint0_linear_39_707" x1="208.078" y1="25.5" x2="208.078" y2="233.5" gradientUnits="userSpaceOnUse">
<stop offset="0.0916515" stop-color="white" stop-opacity="0"/>
<stop offset="0.389123" stop-color="#FCFCFC"/>
<stop offset="0.976991" stop-color="#FAFAFA"/>
</linearGradient>
<linearGradient id="paint1_linear_39_707" x1="76.5781" y1="275" x2="77.0781" y2="15.5" gradientUnits="userSpaceOnUse">
<stop stop-color="#FCFCFC"/>
<stop offset="0.65296" stop-color="#FDFDFD"/>
<stop offset="0.888547" stop-color="white" stop-opacity="0"/>
</linearGradient>
<clipPath id="clip0_39_707">
<rect width="285" height="289" fill="white"/>
</clipPath>
</defs>
</svg>
