<svg width="143" height="21" viewBox="0 0 143 21" fill="none" xmlns="http://www.w3.org/2000/svg">
<path d="M134.342 20.0488C134.041 20.0488 133.719 20.0273 133.525 20.0059L133.547 18.6953L134.256 18.7168C135.008 18.7168 135.76 18.6094 136.383 16.9121L136.791 15.7734L132.494 4H134.084L137.479 13.7754H137.586L141.002 4H142.57L137.65 17.4707C137.006 19.1895 135.932 20.0488 134.342 20.0488Z" fill="#898989"/>
<path d="M122.394 12.5725C122.394 10.2092 124.306 9.30688 126.69 9.11353C127.464 9.05981 129.354 8.95239 129.913 8.92017V7.82446C129.913 6.2561 128.903 5.31079 127.077 5.31079C125.552 5.31079 124.521 6.01978 124.241 7.07251H122.716C122.952 5.22485 124.735 4.00024 127.163 4.00024C128.903 4.00024 131.374 4.7522 131.374 7.95337V15.8381H129.913V14.0334H129.827C129.354 15.0432 128.194 16.0959 126.239 16.0959C124.112 16.0959 122.394 14.8284 122.394 12.5725ZM123.854 12.637C123.854 14.012 124.95 14.7854 126.454 14.7854C128.603 14.7854 129.913 13.2385 129.913 11.3909V10.1448L126.905 10.3596C124.843 10.51 123.854 11.3049 123.854 12.637Z" fill="#898989"/>
<path d="M110.826 15.8135V0.258789H115.918C119.27 0.258789 120.967 2.34277 120.967 5.09277C120.967 7.82129 119.27 9.92676 115.939 9.92676H112.352V15.8135H110.826ZM112.352 8.55176H115.875C118.303 8.55176 119.463 7.09082 119.463 5.09277C119.463 3.07324 118.303 1.63379 115.854 1.63379H112.352V8.55176Z" fill="#898989"/>
<path d="M103.115 3.52539C104.349 3.52539 105.324 3.93372 106.04 4.75039C106.774 5.56706 107.14 6.98373 107.14 9.00039V15.8254H103.14L103.115 9.50039C103.115 8.68372 102.99 8.09206 102.74 7.72539C102.507 7.35872 102.04 7.17539 101.34 7.17539C100.64 7.17539 100.165 7.35872 99.9152 7.72539C99.6819 8.09206 99.5652 8.68372 99.5652 9.50039V15.8254H95.5652L95.5402 9.50039C95.5402 8.68372 95.4152 8.09206 95.1652 7.72539C94.9319 7.35872 94.4652 7.17539 93.7652 7.17539C93.0652 7.17539 92.5902 7.35872 92.3402 7.72539C92.1069 8.09206 91.9902 8.68372 91.9902 9.50039V15.8254H87.9902V3.65039H91.7902L91.9902 5.87539H92.0652C92.2819 5.14206 92.6569 4.56706 93.1902 4.15039C93.7402 3.73372 94.5152 3.52539 95.5152 3.52539C96.5152 3.52539 97.2986 3.73372 97.8652 4.15039C98.4486 4.56706 98.8236 5.14206 98.9902 5.87539H99.0652C99.2819 5.12539 99.6986 4.55039 100.315 4.15039C100.949 3.73372 101.882 3.52539 103.115 3.52539Z" fill="#323232"/>
<path d="M77.9199 16.0504C76.3866 16.0504 75.2949 15.6421 74.6449 14.8254C73.9949 14.0087 73.6699 12.8421 73.6699 11.3254V3.65039H77.6699L77.6949 10.3504C77.6949 11.1004 77.8283 11.6337 78.0949 11.9504C78.3616 12.2504 78.9033 12.4004 79.7199 12.4004C80.5033 12.4004 81.0283 12.2671 81.2949 12.0004C81.5783 11.7171 81.7283 11.2421 81.7449 10.5754V3.65039H85.7449V15.8254H81.9449L81.7449 14.4504H81.6699C81.4533 14.9337 81.0116 15.3254 80.3449 15.6254C79.6783 15.9087 78.8699 16.0504 77.9199 16.0504Z" fill="#323232"/>
<path d="M65.3301 3.52539C66.9301 3.52539 68.2217 3.69206 69.2051 4.02539C70.1884 4.35873 70.9051 4.97539 71.3551 5.87539C71.8217 6.75873 72.0551 8.04206 72.0551 9.72539V15.8254H68.4301L68.3051 14.6754H68.2301C67.9134 15.0921 67.4217 15.4254 66.7551 15.6754C66.0884 15.9254 65.2217 16.0504 64.1551 16.0504C61.2717 16.0504 59.8301 14.7004 59.8301 12.0004C59.8301 10.8504 60.2051 9.95039 60.9551 9.30039C61.7217 8.63373 62.9217 8.30039 64.5551 8.30039H68.2551C68.1384 7.60039 67.8384 7.13372 67.3551 6.90039C66.8717 6.65039 66.0467 6.52539 64.8801 6.52539C64.1467 6.52539 63.4217 6.58373 62.7051 6.70039C62.0051 6.80039 61.3884 6.91706 60.8551 7.05039L60.7801 7.00039L60.8051 4.10039C61.1384 4.00039 61.5634 3.90873 62.0801 3.82539C62.5967 3.72539 63.1384 3.65039 63.7051 3.60039C64.2884 3.55039 64.8301 3.52539 65.3301 3.52539ZM65.1801 13.1004C66.2134 13.1004 66.9884 12.9754 67.5051 12.7254C68.0217 12.4587 68.2884 12.0421 68.3051 11.4754V10.8504H65.4801C64.7467 10.8504 64.2301 10.9587 63.9301 11.1754C63.6467 11.3754 63.5051 11.6504 63.5051 12.0004C63.5051 12.4171 63.6551 12.7087 63.9551 12.8754C64.2551 13.0254 64.6634 13.1004 65.1801 13.1004Z" fill="#323232"/>
<path d="M46.9762 15.025C46.6928 14.125 46.4012 13.1667 46.1012 12.15C45.8178 11.1333 45.5345 10.125 45.2512 9.125C44.9678 8.125 44.7095 7.19167 44.4762 6.325C44.2428 5.45833 44.0428 4.70833 43.8762 4.075C43.7095 3.44167 43.5928 2.99167 43.5262 2.725L43.4262 2.75C43.4762 3.05 43.5178 3.45 43.5512 3.95C43.5845 4.43333 43.6095 4.95 43.6262 5.5C43.6428 6.03333 43.6512 6.525 43.6512 6.975V15.825H39.8262V0H46.5262C46.7595 0.883333 47.0012 1.81667 47.2512 2.8C47.5178 3.76667 47.7762 4.73333 48.0262 5.7C48.2928 6.65 48.5262 7.55833 48.7262 8.425C48.9262 9.275 49.0678 10.0167 49.1512 10.65H49.2012C49.2845 10.0167 49.4178 9.275 49.6012 8.425C49.8012 7.575 50.0262 6.66667 50.2762 5.7C50.5262 4.73333 50.7845 3.76667 51.0512 2.8C51.3178 1.81667 51.5595 0.883333 51.7762 0H58.3762V15.825H54.6012V6.975C54.6012 6.525 54.6095 6.03333 54.6262 5.5C54.6428 4.95 54.6678 4.43333 54.7012 3.95C54.7512 3.45 54.7928 3.05 54.8262 2.75L54.7262 2.725C54.6595 2.99167 54.5428 3.44167 54.3762 4.075C54.2095 4.70833 54.0012 5.46667 53.7512 6.35C53.5178 7.21667 53.2595 8.15 52.9762 9.15C52.6928 10.15 52.4012 11.1583 52.1012 12.175C51.8178 13.175 51.5428 14.125 51.2762 15.025H46.9762Z" fill="#323232"/>
<path d="M10.9275 0.000732422L15.9116 4.91588L4.98416 15.9966L5.49825e-05 11.0815L10.9275 0.000732422Z" fill="#FFD158"/>
<rect x="20.7419" y="0.00195312" width="7" height="15.5625" transform="rotate(44.6009 20.7419 0.00195312)" fill="#FFD158"/>
<path d="M35.7014 9.00195L35.7014 16.002L21.7014 16.002L21.7014 9.00195L35.7014 9.00195Z" fill="#FFD158"/>
</svg>
