<svg width="121" height="17" viewBox="0 0 121 17" fill="none" xmlns="http://www.w3.org/2000/svg">
<g opacity="0.3">
<path d="M113.912 16.9999C113.657 16.9999 113.384 16.9817 113.22 16.9634L113.238 15.8522L113.84 15.8704C114.477 15.8704 115.115 15.7793 115.643 14.3402L115.989 13.3747L112.346 3.3916H113.694L116.572 11.6804H116.663L119.56 3.3916H120.89L116.718 14.8138C116.171 16.2712 115.26 16.9999 113.912 16.9999Z" fill="white"/>
<path d="M103.781 10.6605C103.781 8.65663 105.402 7.8915 107.425 7.72755C108.08 7.68201 109.684 7.59092 110.157 7.56359V6.63451C110.157 5.30466 109.301 4.5031 107.752 4.5031C106.459 4.5031 105.585 5.10427 105.348 5.99691H104.054C104.255 4.43023 105.767 3.39185 107.825 3.39185C109.301 3.39185 111.396 4.02945 111.396 6.74382V13.4295H110.157V11.8993H110.084C109.684 12.7555 108.7 13.6482 107.042 13.6482C105.239 13.6482 103.781 12.5733 103.781 10.6605ZM105.02 10.7152C105.02 11.8811 105.949 12.5369 107.224 12.5369C109.046 12.5369 110.157 11.2253 110.157 9.65858V8.60198L107.607 8.78415C105.858 8.91167 105.02 9.58571 105.02 10.7152Z" fill="white"/>
<path d="M93.9728 13.4088V0.219482H98.2903C101.132 0.219482 102.571 1.98656 102.571 4.31836C102.571 6.63195 101.132 8.41724 98.3085 8.41724H95.2662V13.4088H93.9728ZM95.2662 7.25134H98.2538C100.312 7.25134 101.296 6.01257 101.296 4.31836C101.296 2.60594 100.312 1.38539 98.2356 1.38539H95.2662V7.25134Z" fill="white"/>
<path d="M87.4344 2.98926C88.4802 2.98926 89.3069 3.3355 89.9146 4.02797C90.5364 4.72045 90.8474 5.92168 90.8474 7.63168V13.4188H87.4556L87.4344 8.05564C87.4344 7.36316 87.3284 6.86147 87.1165 6.55056C86.9186 6.23966 86.5229 6.0842 85.9294 6.0842C85.3358 6.0842 84.933 6.23966 84.7211 6.55056C84.5232 6.86147 84.4243 7.36316 84.4243 8.05564V13.4188H81.0326L81.0114 8.05564C81.0114 7.36316 80.9054 6.86147 80.6934 6.55056C80.4955 6.23966 80.0998 6.0842 79.5063 6.0842C78.9127 6.0842 78.51 6.23966 78.298 6.55056C78.1001 6.86147 78.0012 7.36316 78.0012 8.05564V13.4188H74.6095V3.09525H77.8316L78.0012 4.98189H78.0648C78.2485 4.36008 78.5665 3.87252 79.0187 3.51921C79.4851 3.16591 80.1422 2.98926 80.9902 2.98926C81.8381 2.98926 82.5023 3.16591 82.9828 3.51921C83.4774 3.87252 83.7954 4.36008 83.9367 4.98189H84.0003C84.184 4.34595 84.5373 3.85839 85.0602 3.51921C85.5973 3.16591 86.3887 2.98926 87.4344 2.98926Z" fill="white"/>
<path d="M66.0705 13.6095C64.7703 13.6095 63.8447 13.2633 63.2935 12.5708C62.7424 11.8784 62.4668 10.8891 62.4668 9.60308V3.09521H65.8585L65.8797 8.77634C65.8797 9.41229 65.9928 9.86452 66.2189 10.133C66.445 10.3874 66.9043 10.5146 67.5968 10.5146C68.261 10.5146 68.7061 10.4015 68.9323 10.1754C69.1725 9.93518 69.2997 9.53242 69.3138 8.96713V3.09521H72.7056V13.4188H69.4834L69.3138 12.2529H69.2502C69.0665 12.6627 68.692 12.9948 68.1267 13.2492C67.5614 13.4894 66.876 13.6095 66.0705 13.6095Z" fill="white"/>
<path d="M55.3953 2.98926C56.752 2.98926 57.8472 3.13058 58.681 3.41322C59.5148 3.69587 60.1225 4.21876 60.5041 4.98189C60.8998 5.7309 61.0976 6.81908 61.0976 8.24642V13.4188H58.0239L57.9179 12.4437H57.8543C57.5858 12.797 57.1689 13.0796 56.6036 13.2916C56.0383 13.5036 55.3034 13.6096 54.399 13.6096C51.9541 13.6096 50.7317 12.4649 50.7317 10.1755C50.7317 9.20035 51.0497 8.43721 51.6856 7.88605C52.3357 7.32077 53.3532 7.03812 54.7382 7.03812H57.8755C57.7766 6.44457 57.5222 6.04887 57.1124 5.85102C56.7025 5.63904 56.003 5.53305 55.0137 5.53305C54.3919 5.53305 53.7772 5.58251 53.1695 5.68144C52.5759 5.76623 52.053 5.86515 51.6008 5.97821L51.5372 5.93581L51.5584 3.47682C51.8411 3.39202 52.2014 3.3143 52.6395 3.24364C53.0776 3.15884 53.5369 3.09525 54.0174 3.05285C54.512 3.01046 54.9713 2.98926 55.3953 2.98926ZM55.2681 11.1082C56.1443 11.1082 56.8015 11.0022 57.2396 10.7902C57.6776 10.5641 57.9038 10.2108 57.9179 9.7303V9.20034H55.5225C54.9007 9.20034 54.4626 9.2922 54.2082 9.47592C53.968 9.64551 53.8478 9.87869 53.8478 10.1755C53.8478 10.5288 53.975 10.7761 54.2294 10.9174C54.4838 11.0446 54.83 11.1082 55.2681 11.1082Z" fill="white"/>
<path d="M39.8325 12.7401C39.5922 11.977 39.3449 11.1644 39.0905 10.3023C38.8503 9.44029 38.61 8.58529 38.3698 7.73736C38.1295 6.88943 37.9105 6.09803 37.7126 5.36316C37.5148 4.62828 37.3452 3.99234 37.2039 3.45531C37.0626 2.91829 36.9636 2.53672 36.9071 2.31061L36.8223 2.33181C36.8647 2.58619 36.9 2.92536 36.9283 3.34932C36.9566 3.75916 36.9778 4.19725 36.9919 4.66361C37.006 5.11584 37.0131 5.53274 37.0131 5.91431V13.4185H33.7698V0H39.4509C39.6488 0.749004 39.8537 1.54041 40.0657 2.3742C40.2918 3.19387 40.5108 4.01353 40.7228 4.8332C40.9489 5.63873 41.1468 6.40894 41.3164 7.14381C41.4859 7.86455 41.6061 8.49343 41.6767 9.03045H41.7191C41.7898 8.49343 41.9028 7.86455 42.0583 7.14381C42.2279 6.42307 42.4187 5.65287 42.6306 4.8332C42.8426 4.01353 43.0617 3.19387 43.2878 2.3742C43.5139 1.54041 43.7188 0.749004 43.9025 0H49.4989V13.4185H46.2979V5.91431C46.2979 5.53274 46.305 5.11584 46.3191 4.66361C46.3333 4.19725 46.3545 3.75916 46.3827 3.34932C46.4251 2.92536 46.4605 2.58619 46.4887 2.33181L46.4039 2.31061C46.3474 2.53672 46.2485 2.91829 46.1072 3.45531C45.9658 3.99234 45.7892 4.63535 45.5772 5.38435C45.3793 6.11923 45.1603 6.91063 44.9201 7.75856C44.6798 8.60649 44.4325 9.46148 44.1781 10.3235C43.9379 11.1715 43.7047 11.977 43.4786 12.7401H39.8325Z" fill="white"/>
<path d="M9.26575 0.000732422L13.4919 4.16844L4.22622 13.5641L4.80454e-05 9.39642L9.26575 0.000732422Z" fill="white"/>
<rect x="17.5878" y="0.00170898" width="5.93551" height="13.1959" transform="rotate(44.6009 17.5878 0.00170898)" fill="white"/>
<path d="M30.2725 7.63306L30.2725 13.5686L18.4014 13.5686L18.4014 7.63306L30.2725 7.63306Z" fill="white"/>
</g>
</svg>
