<svg width="14" height="15" viewBox="0 0 14 15" fill="none" xmlns="http://www.w3.org/2000/svg">
<path fill-rule="evenodd" clip-rule="evenodd" d="M0.634661 0H0V5.45455H1.26932V1.36364H5.07729V0H0.634661ZM0.634661 15H0V9.54545H1.26932V13.6364H5.07729V15H0.634661ZM13.9625 0V5.45455H12.6932V1.36364H8.88525V0H13.9625ZM13.9625 14.3182V15H8.88525V13.6364H12.6932V9.54545H13.9625V14.3182Z" fill="#323232"/>
<path fill-rule="evenodd" clip-rule="evenodd" d="M2.7926 6.21429V6.85714H6.38297V3H2.7926V6.21429ZM5.18618 5.57143H3.98939V4.28571H5.18618V5.57143ZM7.57976 6.21429V6.85714H11.1701V3H7.57976V6.21429ZM9.97333 5.57143H8.77655V4.28571H9.97333V5.57143ZM2.7926 12V8.14286H6.38297V12H2.7926ZM3.98939 10.7143H5.18618V9.42857H3.98939V10.7143ZM7.57976 11.0357V12H11.1701V10.7143H8.77655V8.14286H7.57976V11.0357ZM9.97333 8.14286V9.42857H11.1701V8.14286H9.97333Z" fill="#323232"/>
</svg>
